<svg version="1.1" xmlns="http://www.w3.org/2000/svg" viewBox="0 0 461.43175340253606 496.5594722010643" width="461.43175340253606" height="496.5594722010643">
  <!-- svg-source:excalidraw -->
  
  <defs>
    <style class="style-fonts">
      @font-face {
        font-family: "Virgil";
        src: url("https://excalidraw.com/Virgil.woff2");
      }
      @font-face {
        font-family: "Cascadia";
        src: url("https://excalidraw.com/Cascadia.woff2");
      }
      @font-face {
        font-family: "Assistant";
        src: url("https://excalidraw.com/Assistant-Regular.woff2");
      }
    </style>
    
  </defs>
  <g stroke-linecap="round" transform="translate(258 280.21877439438265) rotate(0 13.5 13.5)"><path d="M11.02 0.56 C13.63 -0.09, 17.46 0.17, 20.04 1.56 C22.62 2.95, 25.42 6.17, 26.49 8.92 C27.55 11.68, 27.5 15.31, 26.46 18.08 C25.41 20.84, 22.7 24.07, 20.21 25.52 C17.73 26.97, 14.36 27.3, 11.53 26.77 C8.71 26.24, 5.24 24.46, 3.27 22.35 C1.29 20.23, -0.37 17.05, -0.33 14.09 C-0.3 11.13, 1.63 6.9, 3.48 4.58 C5.32 2.26, 9.41 0.86, 10.76 0.14 C12.11 -0.57, 11.42 0.08, 11.58 0.3 M10.01 0.11 C12.73 -0.8, 17.47 0.2, 20.11 1.48 C22.74 2.77, 24.83 5.06, 25.82 7.8 C26.81 10.54, 26.84 15.17, 26.04 17.92 C25.24 20.67, 23.43 22.71, 21.05 24.29 C18.66 25.86, 14.52 27.74, 11.75 27.37 C8.97 27, 6.31 24.36, 4.38 22.09 C2.44 19.82, 0.49 16.61, 0.16 13.75 C-0.18 10.89, 0.7 7.2, 2.38 4.91 C4.05 2.62, 8.92 0.68, 10.2 0.01 C11.47 -0.65, 9.86 0.56, 10.01 0.93" stroke="#ffffff" stroke-width="4" fill="none"></path></g><g stroke-linecap="round"><g transform="translate(283 271.21877439438265) rotate(0 0 -119)"><path d="M0.12 -0.49 C0.1 -40.12, -0.96 -198.06, -1 -237.82 M-1.27 -1.79 C-0.86 -41.2, 1.13 -196.77, 1.18 -236.2" stroke="#40c057" stroke-width="4" fill="none"></path></g></g><mask></mask><g stroke-linecap="round"><g transform="translate(283 35.21877439438262) rotate(0 72.5 0)"><path d="M1.12 -0.21 C25.35 -0.34, 121.79 -0.34, 145.82 -0.24 M0.24 -1.36 C24.36 -1.36, 121.23 1.23, 145.3 1.17" stroke="#2f9e44" stroke-width="4" fill="none"></path></g></g><mask></mask><g stroke-linecap="round"><g transform="translate(430.9701773344075 36.31273802278557) rotate(0 0 56.95301818579853)"><path d="M-0.85 -0.03 C-0.76 19.08, 0.96 95.41, 1.17 114.59 M0.9 -1.08 C0.88 17.67, 1.01 93.75, 0.84 112.83" stroke="#40c057" stroke-width="4" fill="none"></path></g></g><mask></mask><g stroke-linecap="round"><g transform="translate(431 150.21877439438262) rotate(0 -36 0)"><path d="M0.33 -0.81 C-11.62 -0.76, -60.58 -0.57, -72.5 -0.63 M-0.95 1.38 C-13.03 1.65, -61.95 0.88, -73.71 0.57" stroke="#40c057" stroke-width="4" fill="none"></path></g></g><mask></mask><g transform="translate(310 115.21877439438262) rotate(0 41.00833511352539 12)"><text x="0" y="19.3125" font-family="Cascadia, Segoe UI Emoji" font-size="20px" fill="#40c057" text-anchor="start" style="white-space: pre;" direction="ltr" dominant-baseline="alphabetic">1F-8754</text></g><g stroke-linecap="round"><g transform="translate(255 272.21877439438265) rotate(0 -45 0)"><path d="M1.17 1.19 C-13.83 1.52, -75.73 0.89, -91.04 0.77 M0.33 0.77 C-14.22 0.87, -74.12 -0.55, -88.88 -0.94" stroke="#4dabf7" stroke-width="4" fill="none"></path></g></g><mask></mask><g stroke-linecap="round"><g transform="translate(164 272.21877439438265) rotate(0 0 80.5)"><path d="M-0.76 -0.45 C-0.86 26.09, -0.41 133.13, -0.27 160.11 M1.05 -1.72 C0.73 24.86, -1.08 134.34, -1.35 161.19" stroke="#4dabf7" stroke-width="4" fill="none"></path></g></g><mask></mask><g stroke-linecap="round"><g transform="translate(163 432.21877439438265) rotate(0 -35.5 0)"><path d="M-0.41 0.41 C-12.5 0.4, -60.32 1.27, -72.08 1.09 M1.57 -0.42 C-10.2 -0.24, -57.73 -0.58, -69.93 -0.46" stroke="#4dabf7" stroke-width="4" fill="none"></path></g></g><mask></mask><g transform="translate(48 404.21877439438265) rotate(0 41.00833511352539 12)"><text x="0" y="19.3125" font-family="Cascadia, Segoe UI Emoji" font-size="20px" fill="#4dabf7" text-anchor="start" style="white-space: pre;" direction="ltr" dominant-baseline="alphabetic">0F-9287</text></g><g stroke-linecap="round"><g transform="translate(269 270.21877439438265) rotate(0 0 -81)"><path d="M0.45 0.19 C0.62 -27.02, 1.26 -135.35, 1.01 -162.23 M-0.77 -0.76 C-0.68 -27.26, 0.25 -133.78, 0.59 -160.81" stroke="#ff5500" stroke-width="4" fill="none"></path></g></g><mask></mask><g stroke-linecap="round"><g transform="translate(269 110.21877439438262) rotate(0 -69.5 0)"><path d="M0.23 0.7 C-22.62 0.68, -114.9 -0.6, -138.24 -0.88 M-1.11 0.03 C-23.95 0.19, -116.09 0.23, -138.79 0.2" stroke="#e03131" stroke-width="4" fill="none"></path></g></g><mask></mask><g stroke-linecap="round"><g transform="translate(131 108.21877439438262) rotate(0 0 126)"><path d="M0.43 0.44 C0.16 42.53, -0.34 210.41, -0.55 252.35 M-0.81 -0.38 C-1.38 41.36, -2.19 208.11, -1.79 250.41" stroke="#e03131" stroke-width="4" fill="none"></path></g></g><mask></mask><g stroke-linecap="round"><g transform="translate(129 360.21877439438265) rotate(0 -39 0)"><path d="M-1.04 -0.23 C-14.09 -0.16, -64.46 -0.25, -77.44 -0.08 M0.61 -1.39 C-12.63 -1.09, -65.24 1.37, -78.1 1.42" stroke="#e03131" stroke-width="4" fill="none"></path></g></g><mask></mask><g stroke-linecap="round"><g transform="translate(50 363.21877439438265) rotate(0 0 -50)"><path d="M0.93 0.38 C0.95 -16.53, 0.53 -83.69, 0.3 -100.56 M-0.04 -0.46 C-0.16 -17.3, -0.25 -82.73, -0.49 -99.32" stroke="#e03131" stroke-width="4" fill="none"></path></g></g><mask></mask><g transform="translate(10 229.21877439438262) rotate(0 41.00833511352539 12)"><text x="0" y="19.3125" font-family="Cascadia, Segoe UI Emoji" font-size="20px" fill="#e03131" text-anchor="start" style="white-space: pre;" direction="ltr" dominant-baseline="alphabetic">0F-4029</text></g><g stroke-linecap="round"><g transform="translate(273 320.21877439438265) rotate(0 0 66.99999999999994)"><path d="M0.18 0.29 C-0.03 22.49, -0.17 111.77, -0.06 133.96 M-1.19 -0.61 C-1.67 21.74, -1.32 112.97, -1.03 135.47" stroke="#ff00ff" stroke-width="4" fill="none"></path></g></g><mask></mask><g stroke-linecap="round"><g transform="translate(415 454.784396038846) rotate(0 -70.68720503425834 0)"><path d="M0.83 -0.52 C-22.5 -0.6, -117.05 0.06, -140.59 0.05 M-0.19 1.82 C-23.56 1.91, -117.72 1.84, -141.12 1.62" stroke="#ff00ff" stroke-width="4" fill="none"></path></g></g><mask></mask><g stroke-linecap="round"><g transform="translate(415.1446194436089 252.55265359490076) rotate(0 0 102.83306039974093)"><path d="M-0.74 -0.15 C-0.53 34.04, 0.87 171.91, 0.87 206.2 M1.06 -1.28 C1.23 33.08, 0.26 169.67, 0.38 204.36" stroke="#ff00ff" stroke-width="4" fill="none"></path></g></g><mask></mask><g stroke-linecap="round"><g transform="translate(415 252.55265359490076) rotate(0 -35.61489531245388 0)"><path d="M-0.68 -0.59 C-12.34 -0.76, -59.45 -1.18, -71.13 -1.11 M1.16 1.72 C-10.55 1.66, -59.95 -0.05, -72.03 -0.16" stroke="#ff00ff" stroke-width="4" fill="none"></path></g></g><mask></mask><g transform="translate(311 218.21877439438262) rotate(0 41.00833511352539 12)"><text x="0" y="19.3125" font-family="Cascadia, Segoe UI Emoji" font-size="20px" fill="#ff00ff" text-anchor="start" style="white-space: pre;" direction="ltr" dominant-baseline="alphabetic">1F-6578</text></g><g stroke-linecap="round"><g transform="translate(257 483.21877439438254) rotate(0 0 -86.99999999999994)"><path d="M0.99 0.86 C1.2 -28.16, 0.32 -144.25, 0.2 -173.55 M0.06 0.26 C0.21 -29.17, -0.57 -146.37, -0.65 -175.44" stroke="#ffd43b" stroke-width="4" fill="none"></path></g></g><mask></mask><g stroke-linecap="round"><g transform="translate(446 485.5105817185147) rotate(0 -94.09378203937263 0)"><path d="M0.83 -0.44 C-30.56 -0.4, -156.54 0.3, -187.85 0.2 M-0.19 -1.72 C-31.76 -2.07, -157.45 -2.05, -188.63 -1.82" stroke="#ffd43b" stroke-width="4" fill="none"></path></g></g><mask></mask><g transform="translate(293 287.21877439438265) rotate(0 46.86666488647461 12)"><text x="0" y="19.3125" font-family="Cascadia, Segoe UI Emoji" font-size="20px" fill="#ffffff" text-anchor="start" style="white-space: pre;" direction="ltr" dominant-baseline="alphabetic">-1F-0803</text></g><g stroke-linecap="round"><g transform="translate(449.70865193806185 12.21877439438262) rotate(0 0 236.94480984470766)"><path d="M-0.42 -0.31 C-0.5 78.85, -1.03 395.49, -0.77 474.34 M1.56 -1.52 C1.89 77.33, 1.63 393.28, 1.54 472.45" stroke="#ffd43b" stroke-width="4" fill="none"></path></g></g><mask></mask><g stroke-linecap="round"><g transform="translate(450 10.697044532670105) rotate(0 -197.22067706134965 0)"><path d="M0.32 -0.68 C-65.44 -0.84, -329.91 0.01, -395.54 0.11 M-0.98 1.58 C-66.29 2.15, -327.94 1.78, -393.4 1.7" stroke="#ffd43b" stroke-width="4" fill="none"></path></g></g><mask></mask><g stroke-linecap="round"><g transform="translate(54.61165062297937 10.622335848065518) rotate(0 -5.684341886080802e-14 28.79821927315855)"><path d="M-0.59 0.28 C-0.45 9.73, -0.31 47.93, -0.03 57.48 M1.29 -0.62 C1.36 8.96, -0.93 49.03, -0.99 58.96" stroke="#ffd43b" stroke-width="4" fill="none"></path></g></g><mask></mask><g transform="translate(19 80.21877439438262) rotate(0 41.00833511352539 12)"><text x="0" y="19.3125" font-family="Cascadia, Segoe UI Emoji" font-size="20px" fill="#ffd43b" text-anchor="start" style="white-space: pre;" direction="ltr" dominant-baseline="alphabetic">2F-0029</text></g></svg>